<svg width="32" height="32" viewBox="0 0 32 32" fill="none" xmlns="http://www.w3.org/2000/svg">
<path d="M28.4445 5H3.55561C3.08411 5 2.63193 5.1873 2.29853 5.5207C1.96513 5.8541 1.77783 6.30628 1.77783 6.77778V24.5556C1.77783 25.0271 1.96513 25.4792 2.29853 25.8126C2.63193 26.146 3.08411 26.3333 3.55561 26.3333H28.4445C28.916 26.3333 29.3682 26.146 29.7016 25.8126C30.035 25.4792 30.2223 25.0271 30.2223 24.5556V6.77778C30.2223 6.30628 30.035 5.8541 29.7016 5.5207C29.3682 5.1873 28.916 5 28.4445 5ZM27.0756 24.5556H5.03117L11.2534 18.12L9.97339 16.8844L3.55561 23.5244V8.12889L14.6045 19.1244C14.9376 19.4556 15.3882 19.6414 15.8578 19.6414C16.3275 19.6414 16.7781 19.4556 17.1112 19.1244L28.4445 7.85333V23.4089L21.9023 16.8667L20.6489 18.12L27.0756 24.5556ZM4.72005 6.77778H27.0045L15.8578 17.8622L4.72005 6.77778Z" fill="white"/>
</svg>
